<mxfile host="app.diagrams.net" modified="2024-04-28T08:51:54.671Z" agent="Mozilla/5.0 (Windows NT 10.0; Win64; x64) AppleWebKit/537.36 (KHTML, like Gecko) Chrome/124.0.0.0 Safari/537.36" version="24.2.2" etag="4XK2Cgv0wDgM9azHRUrQ" type="device">
  <diagram id="C5RBs43oDa-KdzZeNtuy" name="Page-1">
    <mxGraphModel dx="1674" dy="818" grid="1" gridSize="10" guides="1" tooltips="1" connect="1" arrows="1" fold="1" page="1" pageScale="1" pageWidth="827" pageHeight="1169" math="0" shadow="0">
      <root>
        <mxCell id="WIyWlLk6GJQsqaUBKTNV-0" />
        <mxCell id="WIyWlLk6GJQsqaUBKTNV-1" parent="WIyWlLk6GJQsqaUBKTNV-0" />
        <mxCell id="2d5OuCjtOnEcSQ5wwcwF-11" value="" style="edgeStyle=orthogonalEdgeStyle;rounded=0;orthogonalLoop=1;jettySize=auto;html=1;" edge="1" parent="WIyWlLk6GJQsqaUBKTNV-1" source="2d5OuCjtOnEcSQ5wwcwF-0" target="2d5OuCjtOnEcSQ5wwcwF-1">
          <mxGeometry relative="1" as="geometry" />
        </mxCell>
        <mxCell id="2d5OuCjtOnEcSQ5wwcwF-0" value="Start" style="ellipse;whiteSpace=wrap;html=1;aspect=fixed;fillColor=#FFCCE6;" vertex="1" parent="WIyWlLk6GJQsqaUBKTNV-1">
          <mxGeometry x="490" y="350" width="80" height="80" as="geometry" />
        </mxCell>
        <mxCell id="2d5OuCjtOnEcSQ5wwcwF-12" value="" style="edgeStyle=orthogonalEdgeStyle;rounded=0;orthogonalLoop=1;jettySize=auto;html=1;" edge="1" parent="WIyWlLk6GJQsqaUBKTNV-1" source="2d5OuCjtOnEcSQ5wwcwF-1" target="2d5OuCjtOnEcSQ5wwcwF-3">
          <mxGeometry relative="1" as="geometry" />
        </mxCell>
        <mxCell id="2d5OuCjtOnEcSQ5wwcwF-1" value="get data from table tutors" style="rounded=0;whiteSpace=wrap;html=1;fillColor=#99CCFF;" vertex="1" parent="WIyWlLk6GJQsqaUBKTNV-1">
          <mxGeometry x="470" y="460" width="120" height="60" as="geometry" />
        </mxCell>
        <mxCell id="2d5OuCjtOnEcSQ5wwcwF-13" value="" style="edgeStyle=orthogonalEdgeStyle;rounded=0;orthogonalLoop=1;jettySize=auto;html=1;" edge="1" parent="WIyWlLk6GJQsqaUBKTNV-1" source="2d5OuCjtOnEcSQ5wwcwF-3" target="2d5OuCjtOnEcSQ5wwcwF-4">
          <mxGeometry relative="1" as="geometry" />
        </mxCell>
        <mxCell id="2d5OuCjtOnEcSQ5wwcwF-3" value="clear tutorsArraylist if exist" style="rounded=0;whiteSpace=wrap;html=1;fillColor=#99CCFF;" vertex="1" parent="WIyWlLk6GJQsqaUBKTNV-1">
          <mxGeometry x="470" y="555" width="120" height="60" as="geometry" />
        </mxCell>
        <mxCell id="2d5OuCjtOnEcSQ5wwcwF-14" value="" style="edgeStyle=orthogonalEdgeStyle;rounded=0;orthogonalLoop=1;jettySize=auto;html=1;" edge="1" parent="WIyWlLk6GJQsqaUBKTNV-1" source="2d5OuCjtOnEcSQ5wwcwF-4" target="2d5OuCjtOnEcSQ5wwcwF-7">
          <mxGeometry relative="1" as="geometry" />
        </mxCell>
        <mxCell id="2d5OuCjtOnEcSQ5wwcwF-20" value="False" style="edgeLabel;html=1;align=center;verticalAlign=middle;resizable=0;points=[];" vertex="1" connectable="0" parent="2d5OuCjtOnEcSQ5wwcwF-14">
          <mxGeometry x="0.0667" y="-3" relative="1" as="geometry">
            <mxPoint as="offset" />
          </mxGeometry>
        </mxCell>
        <mxCell id="2d5OuCjtOnEcSQ5wwcwF-15" value="" style="edgeStyle=orthogonalEdgeStyle;rounded=0;orthogonalLoop=1;jettySize=auto;html=1;" edge="1" parent="WIyWlLk6GJQsqaUBKTNV-1" source="2d5OuCjtOnEcSQ5wwcwF-4" target="2d5OuCjtOnEcSQ5wwcwF-5">
          <mxGeometry relative="1" as="geometry" />
        </mxCell>
        <mxCell id="2d5OuCjtOnEcSQ5wwcwF-21" value="True" style="edgeLabel;html=1;align=center;verticalAlign=middle;resizable=0;points=[];" vertex="1" connectable="0" parent="2d5OuCjtOnEcSQ5wwcwF-15">
          <mxGeometry x="-0.2" relative="1" as="geometry">
            <mxPoint as="offset" />
          </mxGeometry>
        </mxCell>
        <mxCell id="2d5OuCjtOnEcSQ5wwcwF-4" value="access each data with sanpshort" style="rhombus;whiteSpace=wrap;html=1;fillColor=#3399FF;" vertex="1" parent="WIyWlLk6GJQsqaUBKTNV-1">
          <mxGeometry x="445" y="660" width="170" height="80" as="geometry" />
        </mxCell>
        <mxCell id="2d5OuCjtOnEcSQ5wwcwF-16" style="edgeStyle=orthogonalEdgeStyle;rounded=0;orthogonalLoop=1;jettySize=auto;html=1;exitX=1;exitY=0.5;exitDx=0;exitDy=0;entryX=1;entryY=0.5;entryDx=0;entryDy=0;" edge="1" parent="WIyWlLk6GJQsqaUBKTNV-1" source="2d5OuCjtOnEcSQ5wwcwF-5" target="2d5OuCjtOnEcSQ5wwcwF-4">
          <mxGeometry relative="1" as="geometry">
            <Array as="points">
              <mxPoint x="635" y="810" />
              <mxPoint x="635" y="700" />
            </Array>
          </mxGeometry>
        </mxCell>
        <mxCell id="2d5OuCjtOnEcSQ5wwcwF-5" value="add data to Arraylist&amp;nbsp;" style="shape=parallelogram;perimeter=parallelogramPerimeter;whiteSpace=wrap;html=1;fixedSize=1;fillColor=#99CCFF;" vertex="1" parent="WIyWlLk6GJQsqaUBKTNV-1">
          <mxGeometry x="460" y="780" width="140" height="60" as="geometry" />
        </mxCell>
        <mxCell id="2d5OuCjtOnEcSQ5wwcwF-17" value="" style="edgeStyle=orthogonalEdgeStyle;rounded=0;orthogonalLoop=1;jettySize=auto;html=1;" edge="1" parent="WIyWlLk6GJQsqaUBKTNV-1" source="2d5OuCjtOnEcSQ5wwcwF-7" target="2d5OuCjtOnEcSQ5wwcwF-8">
          <mxGeometry relative="1" as="geometry" />
        </mxCell>
        <mxCell id="2d5OuCjtOnEcSQ5wwcwF-7" value="create new Adapter and add tutorsArrayList to Adapter" style="rounded=0;whiteSpace=wrap;html=1;fillColor=#99CCFF;" vertex="1" parent="WIyWlLk6GJQsqaUBKTNV-1">
          <mxGeometry x="200" y="670" width="170" height="60" as="geometry" />
        </mxCell>
        <mxCell id="2d5OuCjtOnEcSQ5wwcwF-18" value="" style="edgeStyle=orthogonalEdgeStyle;rounded=0;orthogonalLoop=1;jettySize=auto;html=1;" edge="1" parent="WIyWlLk6GJQsqaUBKTNV-1" source="2d5OuCjtOnEcSQ5wwcwF-8" target="2d5OuCjtOnEcSQ5wwcwF-9">
          <mxGeometry relative="1" as="geometry" />
        </mxCell>
        <mxCell id="2d5OuCjtOnEcSQ5wwcwF-8" value="set view to adapter" style="rounded=0;whiteSpace=wrap;html=1;fillColor=#99CCFF;" vertex="1" parent="WIyWlLk6GJQsqaUBKTNV-1">
          <mxGeometry x="205" y="780" width="160" height="60" as="geometry" />
        </mxCell>
        <mxCell id="2d5OuCjtOnEcSQ5wwcwF-19" value="" style="edgeStyle=orthogonalEdgeStyle;rounded=0;orthogonalLoop=1;jettySize=auto;html=1;" edge="1" parent="WIyWlLk6GJQsqaUBKTNV-1" source="2d5OuCjtOnEcSQ5wwcwF-9" target="2d5OuCjtOnEcSQ5wwcwF-10">
          <mxGeometry relative="1" as="geometry" />
        </mxCell>
        <mxCell id="2d5OuCjtOnEcSQ5wwcwF-9" value="notify data change" style="rounded=0;whiteSpace=wrap;html=1;fillColor=#99CCFF;" vertex="1" parent="WIyWlLk6GJQsqaUBKTNV-1">
          <mxGeometry x="205" y="890" width="160" height="60" as="geometry" />
        </mxCell>
        <mxCell id="2d5OuCjtOnEcSQ5wwcwF-10" value="end" style="ellipse;whiteSpace=wrap;html=1;aspect=fixed;fillColor=#FFCCE6;" vertex="1" parent="WIyWlLk6GJQsqaUBKTNV-1">
          <mxGeometry x="245" y="1000" width="80" height="80" as="geometry" />
        </mxCell>
      </root>
    </mxGraphModel>
  </diagram>
</mxfile>
